<svg width="74" height="74" fill="none" xmlns="http://www.w3.org/2000/svg"><circle cx="37" cy="37" r="37" fill="url(#a)"/><path d="M17 67.5s-3-7.5 1-13 9-6.5 9-6.5M57 67.5s3-7.5-1-13-9-6.5-9-6.5M46.5 26s3-7.5 3.5-8.5 1.4-1.78 2.5-1.5c.8.2 1.2.73 1.5 1.5.29.73 0 2 0 2M28.63 25.06s-3-7.5-3.5-8.5-1.4-1.78-2.5-1.5c-.8.2-1.2.73-1.5 1.5-.3.72 0 2 0 2" stroke="#FFF5ED" stroke-linecap="round"/><circle cx="37" cy="37" r="14.5" stroke="#FFF5ED"/><defs><linearGradient id="a" x1="37" y1="0" x2="37" y2="74" gradientUnits="userSpaceOnUse"><stop stop-color="#AF84D7"/><stop offset=".5" stop-color="#6494ED"/><stop offset="1" stop-color="#47B37B"/></linearGradient></defs></svg>