<svg xmlns="http://www.w3.org/2000/svg" width="500" height="500" style="shape-rendering:geometricPrecision;text-rendering:geometricPrecision;image-rendering:optimizeQuality;fill-rule:evenodd;clip-rule:evenodd"><path style="opacity:.69" fill="#878787" d="M188.5 135.5c-3.07-.13-6.07.2-9 1 .11-.62.44-1.12 1-1.5a11.3 11.3 0 0 1 8 .5Z"/><path style="opacity:1" fill="#121212" d="M303.5 141.5c-.09 2.65.58 4.99 2 7a82.23 82.23 0 0 1-.5 38c-3.69 4.3-7.85 5.3-12.5 3-.47-1.4-1.47-2.07-3-2a51.42 51.42 0 0 1-4.5-18c-.23-6.2-.73-12.37-1.5-18.5a13 13 0 0 0 1-5.5 11.14 11.14 0 0 0 2-7c2.78-4.53 6.78-6.03 12-4.5a11.59 11.59 0 0 1 5 7.5Z"/><path style="opacity:1" fill="#141414" d="M188.5 135.5c3.12 1.64 4.79 4.3 5 8a89.1 89.1 0 0 1-2 51.5c-5.88 3.38-10.71 2.21-14.5-3.5a273.94 273.94 0 0 1 0-53 7.06 7.06 0 0 1 2.5-2c2.93-.8 5.93-1.13 9-1Z"/><path style="opacity:.69" fill="#707070" d="M286.5 138.5c.09 2.65-.58 4.99-2 7-.09-2.65.58-4.99 2-7Z"/><path style="opacity:.718" fill="#6c6c6c" d="M303.5 141.5a11.14 11.14 0 0 1 2 7 11.14 11.14 0 0 1-2-7Z"/><path style="opacity:.518" fill="#8f8f8f" d="M289.5 187.5c1.53-.07 2.53.6 3 2-1.53.07-2.53-.6-3-2Z"/><path style="opacity:1" fill="#111" d="M201.5 363.5c-2.34-1.54-5-2.2-8-2a114.72 114.72 0 0 1-35-14c-.47-1.4-1.47-2.07-3-2a21.82 21.82 0 0 1-9-6c-.47-1.4-1.47-2.07-3-2a11.04 11.04 0 0 1-6-5c-.47-1.4-1.47-2.07-3-2a76.8 76.8 0 0 1-17-19c-.05-2.13-1.05-3.46-3-4a96.24 96.24 0 0 1-13.5-29 49.23 49.23 0 0 1 0-14 7.13 7.13 0 0 1 7.5-1.5 3.92 3.92 0 0 1 2 3.5c-.07 1.53.6 2.53 2 3l12 22c-.07 1.53.6 2.53 2 3 .99 1.3 1.99 2.63 3 4a4.73 4.73 0 0 0 3 4l12 11c0 2 1 3 3 3 36.77 27.25 77.44 35.09 122 23.5a179.2 179.2 0 0 0 38-16.5c1.53.07 2.53-.6 3-2a26.7 26.7 0 0 1 7-5 11.04 11.04 0 0 0 6-5c9.1-8.76 17.44-18.1 25-28 1.4-.47 2.07-1.47 2-3 1.4-.47 2.07-1.47 2-3-.17-1 .16-1.66 1-2 1.4-.47 2.07-1.47 2-3-.17-1 .16-1.66 1-2 1.4-.47 2.07-1.47 2-3l7-16c2.48-1.19 3.48-3.19 3-6 .1-2.29.76-4.29 2-6a11.14 11.14 0 0 0 2-7c2.23-10.63 4.4-21.3 6.5-32 4-8 9.33-9 16-3a76.1 76.1 0 0 1 2.5 12c-5.4 52-28.4 94.16-69 126.5-38.26 27.49-80.6 36.65-127 27.5Z"/><path style="opacity:.91" fill="#696969" d="M372.5 232.5c.09 2.65-.58 4.99-2 7-.09-2.65.58-4.99 2-7Z"/><path style="opacity:1" fill="#616161" d="M368.5 245.5c.48 2.81-.52 4.81-3 6 1-2.04 2-4.04 3-6Z"/><path style="opacity:.353" fill="#a3a3a3" d="M110.5 266.5c1.4.47 2.07 1.47 2 3-1.4-.47-2.07-1.47-2-3Z"/><path style="opacity:.376" fill="#9e9e9e" d="M358.5 267.5c.07 1.53-.6 2.53-2 3-.07-1.53.6-2.53 2-3Z"/><path style="opacity:.459" fill="#989898" d="M355.5 272.5c.07 1.53-.6 2.53-2 3-.07-1.53.6-2.53 2-3Z"/><path style="opacity:.51" fill="#8b8b8b" d="M352.5 277.5c.07 1.53-.6 2.53-2 3-.07-1.53.6-2.53 2-3Z"/><path style="opacity:.565" fill="#868686" d="M350.5 280.5c.07 1.53-.6 2.53-2 3-.07-1.53.6-2.53 2-3Z"/><path style="opacity:.471" fill="#959595" d="M124.5 291.5c1.4.47 2.07 1.47 2 3-1.4-.47-2.07-1.47-2-3Z"/><path style="opacity:.682" fill="#9b9b9b" d="M129.5 298.5a4.73 4.73 0 0 1 3 4 4.73 4.73 0 0 1-3-4Z"/><path style="opacity:.922" fill="#818181" d="M114.5 307.5c1.95.54 2.95 1.87 3 4a6.98 6.98 0 0 1-3-4Z"/><path style="opacity:.651" fill="#a8a8a8" d="M144.5 313.5a6.55 6.55 0 0 1 3 3c-2 0-3-1-3-3Z"/><path style="opacity:.902" fill="#606060" d="M323.5 311.5a11.04 11.04 0 0 1-6 5 11.04 11.04 0 0 1 6-5Z"/><path style="opacity:.769" fill="#838383" d="M310.5 321.5c-.47 1.4-1.47 2.07-3 2 .47-1.4 1.47-2.07 3-2Z"/><path style="opacity:.569" fill="#8e8e8e" d="M134.5 330.5c1.53-.07 2.53.6 3 2-1.53.07-2.53-.6-3-2Z"/><path style="opacity:.573" fill="#868686" d="M143.5 337.5c1.53-.07 2.53.6 3 2-1.53.07-2.53-.6-3-2Z"/><path style="opacity:.4" fill="#a2a2a2" d="M155.5 345.5c1.53-.07 2.53.6 3 2-1.53.07-2.53-.6-3-2Z"/><path style="opacity:.643" fill="#7b7b7b" d="M193.5 361.5c3-.2 5.66.46 8 2-2.93-.06-5.6-.73-8-2Z"/></svg>