<svg xmlns="http://www.w3.org/2000/svg" xmlns:xlink="http://www.w3.org/1999/xlink">
  <defs>
    <symbol viewBox="0 0 24 24" id="icon-home">
      <path d="M12.4 4.26a1 1 0 0 0-1.47.04l-6.18 6.92a1 1 0 0 0-.25.66v7.62a1 1 0 0 0 1 1h3a1 1 0 0 0 1-1V16a1 1 0 0 1 1-1h3a1 1 0 0 1 1 1v3.5a1 1 0 0 0 1 1h3a1 1 0 0 0 1-1v-7.6a1 1 0 0 0-.29-.7L12.4 4.27Z"/>
      </symbol>
    <symbol viewBox="0 0 24 24" id="icon-notifications" >
      <path d="M14.86 17.08a23.85 23.85 0 0 0 5.45-1.3A8.97 8.97 0 0 1 18 9.74V9A6 6 0 0 0 6 9v.75a8.97 8.97 0 0 1-2.31 6.02c1.73.64 3.56 1.09 5.45 1.31m5.72 0a24.25 24.25 0 0 1-5.72 0m5.72 0a3 3 0 1 1-5.72 0"/>
    </symbol>
    <symbol viewBox="0 0 24 24" id="icon-create">
      <path d="M8 12h4m0 0h4m-4 0v4m0-4V8m-8 8.8V7.2c0-1.12 0-1.68.22-2.1a2 2 0 0 1 .87-.88C5.52 4 6.08 4 7.2 4h9.6c1.12 0 1.68 0 2.1.22.38.19.7.5.88.87.22.43.22.99.22 2.11v9.6c0 1.12 0 1.68-.22 2.1a2 2 0 0 1-.87.88c-.43.22-.99.22-2.1.22H7.2c-1.12 0-1.68 0-2.1-.22a2 2 0 0 1-.88-.87C4 18.48 4 17.92 4 16.8Z" />
    </symbol>
    <symbol viewBox="0 0 24 24" id="icon-profile">
      <path d="M17.98 18.73A7.49 7.49 0 0 0 12 15.75a7.49 7.49 0 0 0-5.98 2.98m11.96 0a9 9 0 1 0-11.96 0m11.96 0A8.97 8.97 0 0 1 12 21a8.97 8.97 0 0 1-5.98-2.27M15 9.75a3 3 0 1 1-6 0 3 3 0 0 1 6 0Z"/>
    </symbol>
  </defs>
</svg>
