<svg xmlns="http://www.w3.org/2000/svg" xmlns:xlink="http://www.w3.org/1999/xlink">
  <defs>
    <symbol viewBox="0 0 24 24" id="icon-home">
      <path d="M12.4 4.26a1 1 0 0 0-1.47.04l-6.18 6.92a1 1 0 0 0-.25.66v7.62a1 1 0 0 0 1 1h3a1 1 0 0 0 1-1V16a1 1 0 0 1 1-1h3a1 1 0 0 1 1 1v3.5a1 1 0 0 0 1 1h3a1 1 0 0 0 1-1v-7.6a1 1 0 0 0-.29-.7L12.4 4.27Z"/>
      </symbol>
    <symbol viewBox="0 0 24 24" id="icon-notifications" >
      <path d="M14.86 17.08a23.85 23.85 0 0 0 5.45-1.3A8.97 8.97 0 0 1 18 9.74V9A6 6 0 0 0 6 9v.75a8.97 8.97 0 0 1-2.31 6.02c1.73.64 3.56 1.09 5.45 1.31m5.72 0a24.25 24.25 0 0 1-5.72 0m5.72 0a3 3 0 1 1-5.72 0"/>
    </symbol>
    <symbol viewBox="0 0 24 24" id="icon-create">
      <path d="M8 12h4m0 0h4m-4 0v4m0-4V8m-8 8.8V7.2c0-1.12 0-1.68.22-2.1a2 2 0 0 1 .87-.88C5.52 4 6.08 4 7.2 4h9.6c1.12 0 1.68 0 2.1.22.38.19.7.5.88.87.22.43.22.99.22 2.11v9.6c0 1.12 0 1.68-.22 2.1a2 2 0 0 1-.87.88c-.43.22-.99.22-2.1.22H7.2c-1.12 0-1.68 0-2.1-.22a2 2 0 0 1-.88-.87C4 18.48 4 17.92 4 16.8Z" />
    </symbol>
    <symbol viewBox="0 0 24 24" id="icon-profile">
      <path d="M17.98 18.73A7.49 7.49 0 0 0 12 15.75a7.49 7.49 0 0 0-5.98 2.98m11.96 0a9 9 0 1 0-11.96 0m11.96 0A8.97 8.97 0 0 1 12 21a8.97 8.97 0 0 1-5.98-2.27M15 9.75a3 3 0 1 1-6 0 3 3 0 0 1 6 0Z"/>
    </symbol>
    <symbol viewBox="0 0 24 24" id="icon-like">
      <path d="M21 8.25c0-2.485-2.099-4.5-4.688-4.5-1.935 0-3.597 1.126-4.312 2.733-.715-1.607-2.377-2.733-4.313-2.733C5.1 3.75 3 5.765 3 8.25c0 7.22 9 12 9 12s9-4.78 9-12Z" />
    </symbol>
    <symbol viewBox="0 0 24 24" id="icon-comment">
      <path d="M12 20.25c4.97 0 9-3.7 9-8.25s-4.03-8.25-9-8.25S3 7.45 3 12c0 2.1.86 4.02 2.27 5.48.44.45.74 1.04.59 1.64a4.48 4.48 0 0 1-.92 1.79A5.97 5.97 0 0 0 6 21c1.28 0 2.47-.4 3.44-1.09.82.22 1.67.34 2.56.34Z"/>
    </symbol>
    <symbol viewBox="0 0 24 24" id="icon-save">
      <path d="M17.6 3.32c1.1.13 1.9 1.08 1.9 2.19V21L12 17.25 4.5 21V5.5c0-1.1.8-2.05 1.9-2.18a48.5 48.5 0 0 1 11.2 0Z"/>
    </symbol>
  </defs>
</svg>
