<svg width="144" height="140" fill="none" xmlns="http://www.w3.org/2000/svg"><rect width="144" height="140" rx="20" fill="#262626"/><path d="m32.67 128.01 71.87-60.12" stroke="#FFF5EB" stroke-width="3" stroke-linecap="round"/><path d="M77.9 21.13c1.15 3.33 12.32 54.47 12.32 54.47s-19.7-38.76-20.6-40.95c-.92-2.19-2.98-7.7-3.43-12.36-.46-4.66.63-6.67 2.08-8.72 1.49-2.12 3.45-1.88 5.05-1.01 1.6.86 3.44 5.24 4.58 8.57ZM49.55 38.04c2.56 2.45 35.58 43.4 35.58 43.4S48.88 56.3 47.03 54.77c-1.86-1.53-6.27-5.5-8.71-9.52-2.44-4.03-2.21-6.44-1.64-9.08.59-2.72 2.65-3.53 4.62-3.58 1.98-.05 5.68 3 8.25 5.45Z" stroke="#FFF5EB" stroke-width="4" stroke-linecap="round" stroke-linejoin="round"/><circle cx="106.2" cy="63.4" r="7.74" transform="rotate(21.56 106.2 63.4)" fill="#FFF5EB"/></svg>